<?xml version="1.0" encoding="utf-8"?>
<!-- Generator: Adobe Illustrator 21.0.0, SVG Export Plug-In . SVG Version: 6.00 Build 0)  -->
<svg version="1.1" id="Layer_1" xmlns="http://www.w3.org/2000/svg" xmlns:xlink="http://www.w3.org/1999/xlink" x="0px" y="0px"
	 viewBox="0 0 512 335.4" style="enable-background:new 0 0 512 335.4;" xml:space="preserve">
<style type="text/css">
	.st0{fill:#41479B;}
	.st1{fill:#F5F5F5;}
	.st2{fill:#FF4B55;}
</style>
<path class="st0" d="M491.4-15.3H30.6C8.2-15.3-10,4-10,27.7v290c0,23.7,18.2,43,40.6,43h460.8c22.4,0,40.6-19.2,40.6-43v-290
	C532,4,513.8-15.3,491.4-15.3z"/>
<path class="st1" d="M539.6,20.8c-3.3-19.9-20.6-35.1-41.5-35.1h-11L307.7,103.2V-14.4h-96.9v117.6L31.3-14.4h-11
	c-20.9,0-38.2,15.2-41.5,35.1l153.4,100.5h-154v96.9h154L-21.2,318.7c3.3,19.9,20.6,35.1,41.5,35.1h11l179.5-117.6v117.6h96.9V236.2
	l179.5,117.6h11c20.9,0,38.2-15.2,41.5-35.1L386.2,218.2h154v-96.9h-154L539.6,20.8z"/>
<g>
	<polygon class="st2" points="288.1,-14.4 229.9,-14.4 229.9,140.7 -22.2,140.7 -22.2,198.8 229.9,198.8 229.9,353.8 288.1,353.8 
		288.1,198.8 540.2,198.8 540.2,140.7 288.1,140.7 	"/>
	<path class="st2" d="M5,351.1l205-132.9h-35.6L-12.1,339.1C-7.5,344.4-1.7,348.6,5,351.1z"/>
	<path class="st2" d="M358.3,218.2h-35.6l198.5,128.8c5.6-3.6,10.2-8.6,13.5-14.4L358.3,218.2z"/>
	<path class="st2" d="M-17.8,8.9l173.3,112.4h35.6L-5.2-6.1C-10.5-2.1-14.8,3-17.8,8.9z"/>
	<path class="st2" d="M343.1,121.3L529.9,0.1c-4.6-5.3-10.5-9.4-17.2-11.9L307.5,121.3H343.1z"/>
</g>
</svg>
